<svg xmlns="http://www.w3.org/2000/svg" viewBox="0 0 48 48" width="48px" height="48px"><path fill="#d6e5e5" d="M32.222,43.387c1.425-0.09,3.184-0.136,4.605-0.269c1.422-0.133,2.884-0.511,3.955-1.469 c0.695-0.622,1.181-1.449,1.576-2.299c0.46-0.989,0.814-2.033,0.98-3.114c0.148-0.966,0.144-1.948,0.14-2.926 c-0.016-3.491-0.407-6.778-0.302-10.267c0.155-5.14,0.055-10.082-0.325-15.21C42.818,7.377,42.78,6.916,42.64,6.48 c-0.35-1.093-1.31-1.891-2.354-2.335c-2.768-1.176-5.9-0.197-8.879,0.162C25.89,4.971,19.863,4.224,14.308,4.309 c-1.919,0.029-4.435-0.3-6.08,0.702C7.333,5.555,6.654,6.406,6.124,7.318c-0.73,1.256-1.211,2.659-1.407,4.104 c-0.14,1.032-0.136,2.078-0.131,3.119c0.017,3.851,0.522,8.099,0.539,11.951c0.026,1.836-0.019,4.199-0.201,6.025 c-0.163,1.634-0.493,3.263-0.402,4.903s0.68,3.351,1.986,4.318c1.214,0.899,2.811,1.008,4.312,1.078 C17.84,43.144,25.209,43.829,32.222,43.387z"/><path fill="#010101" d="M27.314,44.031c-3.851,0-7.752-0.226-11.564-0.446c-1.664-0.097-3.318-0.192-4.954-0.27 c-1.35-0.063-3.2-0.149-4.586-1.175c-1.278-0.947-2.075-2.657-2.188-4.693c-0.067-1.22,0.089-2.432,0.24-3.604 c0.059-0.459,0.118-0.918,0.164-1.377c0.156-1.562,0.23-3.792,0.199-5.969c-0.008-1.915-0.141-3.966-0.269-5.949 c-0.129-1.998-0.262-4.064-0.271-6.006c-0.005-1.042-0.01-2.119,0.135-3.188c0.204-1.501,0.712-2.983,1.471-4.287 c0.665-1.144,1.409-1.956,2.275-2.483c1.428-0.87,3.374-0.826,5.088-0.788c0.432,0.009,0.852,0.019,1.245,0.013 c2.062-0.032,4.223,0.052,6.314,0.134c3.583,0.138,7.29,0.281,10.733-0.132C32,3.731,32.659,3.623,33.321,3.514 c2.394-0.394,4.871-0.802,7.161,0.172c1.315,0.559,2.275,1.521,2.635,2.643c0.162,0.505,0.201,1.039,0.233,1.469 c0.376,5.082,0.482,10.074,0.326,15.262c-0.06,1.961,0.042,3.903,0.14,5.781c0.076,1.449,0.154,2.948,0.161,4.469 c0.004,0.982,0.009,1.999-0.146,3.004c-0.16,1.044-0.503,2.138-1.021,3.248c-0.322,0.693-0.849,1.703-1.696,2.461 c-1.005,0.9-2.392,1.422-4.242,1.595c-0.913,0.085-1.954,0.135-2.961,0.184c-0.576,0.027-1.14,0.054-1.659,0.087l0,0 C30.625,43.989,28.974,44.031,27.314,44.031z M11.966,4.779c-1.271,0-2.561,0.1-3.478,0.658C7.767,5.877,7.135,6.574,6.556,7.569 c-0.693,1.192-1.158,2.547-1.344,3.92c-0.136,1-0.131,2.042-0.126,3.05c0.008,1.911,0.141,3.962,0.269,5.945 c0.129,1.998,0.262,4.064,0.271,6.005c0.032,2.206-0.044,4.48-0.204,6.077c-0.047,0.469-0.107,0.937-0.167,1.405 c-0.152,1.179-0.295,2.293-0.233,3.421c0.097,1.737,0.747,3.175,1.785,3.944c1.056,0.781,2.454,0.906,4.038,0.98 c1.639,0.076,3.297,0.172,4.965,0.269c5.424,0.313,11.035,0.637,16.383,0.303l0,0c0.524-0.033,1.093-0.061,1.674-0.088 c0.994-0.048,2.022-0.097,2.917-0.181c1.628-0.152,2.828-0.592,3.667-1.343c0.54-0.484,1.003-1.163,1.456-2.139 c0.478-1.025,0.793-2.027,0.939-2.979c0.143-0.927,0.138-1.903,0.134-2.848c-0.007-1.496-0.084-2.983-0.16-4.421 c-0.099-1.898-0.202-3.861-0.142-5.862c0.156-5.153,0.05-10.111-0.323-15.158c-0.03-0.396-0.063-0.847-0.188-1.238 c-0.271-0.844-1.026-1.582-2.074-2.027c-2.021-0.858-4.249-0.492-6.607-0.104c-0.676,0.111-1.35,0.222-2.017,0.302 c-3.522,0.425-7.269,0.279-10.892,0.139c-2.077-0.08-4.224-0.169-6.26-0.133c-0.407,0.004-0.837-0.004-1.282-0.014 C12.685,4.788,12.326,4.779,11.966,4.779z"/><path fill="#4b7bb2" d="M24.533,19.479c-2.144-0.252-4.627-0.456-6.633-1.252c-2.015-0.8-4.41-2.736-5.358-4.685 c-0.989,2.482-0.054,6.106,1.945,7.879c-0.863-0.106-2.131-0.534-2.934-0.868c0.265,2.454,2.553,4.862,4.932,5.521 c-1.112,0.427-2.781,0.615-3.968,0.502c1.067,1.058,2.61,2.107,3.927,2.829c0.829,0.454,1.937,0.717,2.868,0.886 c-0.405,0.5-1.285,0.708-1.914,0.843c-1.913,0.41-3.829,1.018-5.742,1.428c3.252,1.404,7.281,2.401,10.782,1.864 c3.502-0.538,6.861-2.354,8.936-5.225c0.933-1.291,1.592-2.757,2.166-4.242c0.713-1.844,1.31-3.753,1.473-5.724 c0.015-0.186,0.029-0.379,0.123-0.54c0.114-0.196,0.324-0.31,0.52-0.422c0.904-0.521,1.759-1.329,1.856-2.368 c-0.766,0.195-1.532,0.391-2.298,0.586c0.569-0.599,0.857-1.346,1.284-2.053c-0.768,0.152-1.411,0.829-2.283,0.756 c-0.542-0.045-0.979-0.439-1.433-0.738c-1.646-1.08-3.941-0.941-5.568,0.169C25.589,15.734,24.618,17.512,24.533,19.479z"/><path fill="#010101" d="M20.393,35.076c-3.573,0-7.019-1.228-8.935-2.055c-0.2-0.086-0.321-0.292-0.299-0.508 c0.021-0.217,0.18-0.395,0.393-0.44c0.945-0.202,1.913-0.459,2.849-0.708c0.947-0.252,1.926-0.512,2.894-0.72 c0.161-0.034,0.388-0.083,0.625-0.15c-0.691-0.186-1.257-0.401-1.714-0.651c-1.541-0.844-3.051-1.933-4.039-2.912 c-0.15-0.149-0.19-0.376-0.101-0.567c0.089-0.191,0.283-0.295,0.5-0.286c0.708,0.068,1.564,0.021,2.351-0.111 c-2.04-1.117-3.632-3.247-3.86-5.36c-0.019-0.176,0.056-0.349,0.198-0.454c0.142-0.106,0.329-0.129,0.492-0.062 c0.387,0.162,0.871,0.339,1.356,0.49c-1.403-2.07-1.888-5.059-1.024-7.225c0.073-0.184,0.248-0.307,0.446-0.314 c0.225,0,0.382,0.103,0.468,0.281c0.83,1.707,3.02,3.615,5.093,4.438c1.705,0.677,3.839,0.918,5.722,1.131l0.271,0.031 c0.231-1.921,1.253-3.618,2.857-4.712c1.843-1.259,4.362-1.33,6.124-0.174c0.098,0.063,0.195,0.132,0.292,0.201 c0.315,0.222,0.613,0.432,0.908,0.456c0.37,0.026,0.722-0.144,1.121-0.346c0.317-0.161,0.646-0.328,1.024-0.402 c0.194-0.037,0.393,0.042,0.506,0.203c0.113,0.162,0.121,0.376,0.018,0.546c-0.127,0.21-0.241,0.425-0.354,0.637 c-0.061,0.113-0.122,0.228-0.185,0.342l1.001-0.255c0.159-0.041,0.325-0.001,0.448,0.104c0.124,0.105,0.188,0.265,0.173,0.427 c-0.099,1.051-0.847,2.029-2.105,2.755c-0.158,0.091-0.297,0.171-0.337,0.24c-0.035,0.06-0.046,0.195-0.056,0.314 c-0.185,2.236-0.902,4.315-1.506,5.878c-0.524,1.355-1.199,2.933-2.227,4.354c-2.069,2.863-5.446,4.841-9.266,5.427 C21.81,35.028,21.099,35.076,20.393,35.076z M13.313,32.684c2.354,0.86,5.788,1.749,9.05,1.248 c3.557-0.546,6.694-2.377,8.607-5.024c0.961-1.33,1.604-2.834,2.105-4.13c0.58-1.5,1.268-3.49,1.441-5.584 c0.019-0.229,0.041-0.496,0.189-0.751c0.173-0.298,0.447-0.456,0.668-0.583c0.427-0.246,1.039-0.669,1.385-1.246l-1.418,0.361 c-0.216,0.057-0.442-0.04-0.555-0.231c-0.113-0.192-0.085-0.436,0.069-0.598c0.193-0.202,0.352-0.431,0.499-0.675 c-0.347,0.148-0.728,0.259-1.178,0.221c-0.565-0.047-1.009-0.359-1.4-0.635c-0.088-0.063-0.176-0.124-0.265-0.183 c-1.433-0.94-3.494-0.872-5.012,0.164c-1.488,1.015-2.387,2.642-2.465,4.463c-0.006,0.139-0.069,0.27-0.175,0.359 c-0.105,0.09-0.245,0.14-0.383,0.115l-0.781-0.089c-1.945-0.22-4.15-0.47-5.979-1.195c-1.665-0.661-3.74-2.137-4.996-3.889 c-0.333,2.154,0.516,4.84,2.1,6.244c0.164,0.146,0.214,0.38,0.125,0.579c-0.089,0.2-0.295,0.327-0.517,0.291 c-0.622-0.076-1.45-0.31-2.197-0.571c0.59,1.892,2.401,3.694,4.39,4.247c0.208,0.058,0.355,0.242,0.366,0.458 c0.01,0.215-0.119,0.413-0.32,0.49c-0.773,0.297-1.81,0.492-2.809,0.55c0.823,0.659,1.817,1.321,2.83,1.876 c0.621,0.34,1.51,0.613,2.717,0.833c0.174,0.032,0.318,0.153,0.379,0.318c0.062,0.166,0.031,0.352-0.08,0.488 c-0.494,0.61-1.394,0.845-2.198,1.018c-0.944,0.202-1.911,0.459-2.846,0.708C14.214,32.449,13.765,32.568,13.313,32.684z"/></svg>